<?xml version="1.0" encoding="UTF-8" standalone="no"?>
<!-- Generator: Adobe Illustrator 12.0.1, SVG Export Plug-In . SVG Version: 6.00 Build 51448)  -->

<svg
   xmlns:dc="http://purl.org/dc/elements/1.1/"
   xmlns:cc="http://creativecommons.org/ns#"
   xmlns:rdf="http://www.w3.org/1999/02/22-rdf-syntax-ns#"
   xmlns:svg="http://www.w3.org/2000/svg"
   xmlns="http://www.w3.org/2000/svg"
   xmlns:sodipodi="http://sodipodi.sourceforge.net/DTD/sodipodi-0.dtd"
   xmlns:inkscape="http://www.inkscape.org/namespaces/inkscape"
   version="1.1"
   id="SVGs"
   width="233.525"
   height="251.999"
   viewBox="0 0 233.525 251.999"
   overflow="visible"
   enable-background="new 0 0 233.525 251.999"
   xml:space="preserve"
   inkscape:version="0.48.0 r9654"
   sodipodi:docname="fall_boot_bottom.svg"><metadata
   id="metadata9"><rdf:RDF><cc:Work
       rdf:about=""><dc:format>image/svg+xml</dc:format><dc:type
         rdf:resource="http://purl.org/dc/dcmitype/StillImage" /><dc:title></dc:title></cc:Work></rdf:RDF></metadata><defs
   id="defs7" /><sodipodi:namedview
   pagecolor="#ffffff"
   bordercolor="#666666"
   borderopacity="1"
   objecttolerance="10"
   gridtolerance="10"
   guidetolerance="10"
   inkscape:pageopacity="0"
   inkscape:pageshadow="2"
   inkscape:window-width="1440"
   inkscape:window-height="822"
   id="namedview5"
   showgrid="false"
   inkscape:zoom="1.0198453"
   inkscape:cx="131.47061"
   inkscape:cy="3.003845"
   inkscape:window-x="0"
   inkscape:window-y="24"
   inkscape:window-maximized="1"
   inkscape:current-layer="SVGs" />
<path
   fill="#694229"
   d="M233.27,225.233c-1.169-8.208-6.293-13.126-14.041-15.422c-10.17-3.014-21.848-1.507-39.551-21.848  c-17.705-20.341-47.085-67.426-47.085-82.87c0-15.443,5.469-85.688,0-91.156c-1.905-1.905-8.772-3.167-17.679-3.052  c-5.957,0.077-12.826,0.77-19.734,2.298C86.004,2.882,57.547,0.505,39.29,0.08C36.771,0.021,34.448,0,32.395,0  C19,0,12.763,0.874,10.819,5.515c-2.652,6.313,2.682,19.618,8.768,47.221C23.354,67.049,0,99.067,0,119.031  c0,10.895,2.125,17.523,6.961,23.265c0,0.015,0.015,0.015,0.015,0.029c8.483,18.924,25.042,50.927,26.925,72.76  c0,0,8.287,5.273,12.249,5.273c3.948,0,21.457-8.663,21.457-8.663v-15.626c3.661,4.461,7.096,9.056,10.154,13.713  c0.995,1.507,1.944,3.028,2.848,4.55c13.938,23.354,27.499,37.667,70.063,37.667c21.953,0,39.998-0.701,53.98-3.499  c13.129-2.627,22.676-7.103,28.513-14.581C233.614,230.688,233.635,227.8,233.27,225.233z M107.816,216.901  c-1.001,1.33-2.89,1.597-4.219,0.597c-4.245-3.192-8.023-6.955-11.307-10.977c-1.053-1.289-0.861-3.187,0.429-4.239  c1.289-1.054,3.188-0.86,4.24,0.428c3.015,3.694,6.462,7.116,10.261,9.971C108.549,213.682,108.817,215.57,107.816,216.901z   M140.032,226.232c-3.08,0.601-6.183,0.905-9.323,0.905c-2.295,0-4.541-0.193-6.725-0.558c-1.642-0.275-2.749-1.829-2.475-3.47  c0.275-1.643,1.829-2.75,3.47-2.475c1.864,0.312,3.774,0.477,5.73,0.477c2.749,0,5.457-0.269,8.173-0.795  c1.634-0.317,3.216,0.748,3.533,2.383C142.733,224.333,141.666,225.915,140.032,226.232z M173.328,209.694  c-4.426,3.253-8.678,6.091-12.847,8.482c-1.444,0.831-3.286,0.332-4.114-1.111c-0.829-1.444-0.331-3.285,1.113-4.114  c3.918-2.249,7.989-4.961,12.277-8.113c1.342-0.985,3.228-0.698,4.213,0.642C174.957,206.82,174.668,208.708,173.328,209.694z"
   id="path3" />
<path
   style="fill:#b07557;fill-opacity:1"
   d="m 181.7842,188.03826 c 0,0 -14.69,12.053 -32.018,21.095 -4.194,2.189 -8.653,3.163 -13.162,3.113 -6.814,-0.074 -13.744,-2.485 -20.045,-6.565 -4.234,-2.727 -8.183,-6.222 -11.617,-10.275 -2.035,-2.396 -3.902,-5.002 -5.529997,-7.744 h -0.016 c -3.947,7.264 -10.2,14.646 -19.527,22.194 -3.059,-4.656 -6.494,-9.251 -10.155,-13.712 -13.335,-16.212 -29.758,-30.526 -42.746,-39.37 -8.016,-5.469 -13.876,-9.613 -17.8849994,-14.374 0,-0.016 -0.014,-0.016 -0.014,-0.03 -4.8370001,-5.74101 -6.9620001,-12.37001 -6.9620001,-23.26601 0,-19.963 23.3539995,-51.981992 19.5869995,-66.294989 -4.765,-21.610001 -9.069,-34.457001 -9.44,-42.045002 -0.103,-2.1040001 0.096,-3.8050001 0.672,-5.1760001 25.87,7.6400001 41.314,16.5430011 50.882,26.2170011 l 0.828,-0.844 c 7.594,-9.492 20.19,-14.961 32.651,-17.705001 7.125997,-1.576 14.210997,-2.264 20.295997,-2.303 8.633,-0.056 15.251,1.192 17.116,3.058001 5.469,5.469 0,75.711998 0,91.15499 0,15.446 29.381,62.53101 47.085,82.87201 z"
   id="path3011" /><path
   id="path3791"
   style="fill:#e4c3a8"
   d="m 150.57749,81.475774 c -3.05763,4.114823 -8.04282,1.29013 -10.96719,-1.48381 1.65412,-2.325117 1.99142,-5.400101 0.39016,-7.851456 -1.6768,-2.566702 -4.79053,-3.560454 -7.63257,-4.183007 -0.9013,-2.759635 -1.52747,-5.805505 -1.7579,-9.093405 7.87899,-0.786328 17.63126,1.131759 21.42415,8.989521 2.09006,4.350578 1.41191,9.763185 -1.45665,13.622157 z M 121.07052,66.416443 c -1.48031,-0.144675 -2.98683,-0.290586 -4.53484,-0.436736 -6.3019,-0.596489 -12.6473,-1.169894 -18.83986,-2.526838 7.50024,0.763115 15.35198,0.329969 22.60444,-1.816338 0.18338,1.637533 0.44122,3.232273 0.77026,4.779912 z M 86.990655,49.642448 c -2.904038,-1.758401 -3.892882,-4.20042 -2.773597,-7.417269 1.657972,-4.706769 7.162273,-4.881672 11.366152,-4.285553 5.31646,0.755767 10.47882,2.856653 15.08587,5.57279 -7.96862,1.026843 -16.50938,2.278934 -23.678425,6.130032 z m 75.817595,16.9852 c -0.82319,-2.746457 -2.15209,-5.351796 -3.95367,-7.662324 -4.36062,-5.593762 -10.93329,-8.973373 -17.83261,-10.228347 1.17778,-3.434498 -1.46902,-7.017219 -5.08137,-6.972942 -3.37054,0.04244 -6.74126,0.184338 -10.10595,0.379495 -4.53094,-4.948421 -10.50332,-8.552565 -16.63861,-11.160255 -6.55782,-2.785083 -14.07666,-4.699851 -21.217348,-3.478263 -6.796567,1.161185 -12.103742,5.651873 -14.058579,12.301309 -0.982216,3.341539 -0.94419,6.695658 0.03922,9.737657 0.982186,3.041291 2.909756,5.770459 5.703732,7.862883 -3.336228,10.382007 8.818934,14.898387 16.615615,16.529297 9.3881,1.969383 19.07591,2.515157 28.60182,3.494838 0.0243,0.04421 0.0474,0.0877 0.0695,0.131462 -6.59449,3.349757 -13.41202,6.266572 -19.78626,10.042772 -5.66509,3.35569 -12.436483,7.981106 -13.655914,14.97028 -0.305888,1.74731 -0.194566,3.52123 0.314008,5.16661 0.508575,1.64539 1.413953,3.16442 2.698896,4.40437 2.6521,2.56236 6.35418,3.67236 9.91203,4.23815 7.61798,1.20883 15.43486,0.44955 23.09698,0.18543 -4.60379,4.08725 -9.33952,8.03809 -13.61027,12.48213 -4.23783,4.41241 -8.6468,9.67126 -9.72491,15.88413 -0.35012,2.01808 -0.25219,4.05033 0.25094,5.93741 1.05266,3.94291 3.88219,7.25388 8.11441,8.49474 6.46354,1.89505 13.68758,-0.61122 19.71908,-2.90047 -6.83049,6.15831 -13.87095,12.58327 -18.9939,20.28626 -2.49022,3.74484 -4.65895,8.12708 -4.443,12.74017 0.20211,4.2958 2.69432,8.03917 6.35736,10.20966 4.42908,2.62419 9.5199,2.57907 14.46065,1.35551 4.10942,-1.01872 8.11447,-2.85332 11.54823,-4.64825 7.94607,-4.15006 15.28399,-9.45691 22.26478,-15.05607 3.06263,-2.45522 6.06932,-4.98757 8.97833,-7.62517 2.33316,-2.11416 3.25751,-5.46293 0.88918,-8.01356 -1.98184,-2.13367 -5.31818,-2.25678 -7.45159,-0.27397 l -0.0127,0.0106 c -4.3389,4.05954 -9.0175,7.8107 -13.76489,11.37532 -7.21589,5.41798 -15.19885,11.12189 -23.96841,13.66462 -2.06152,0.59766 -9.24275,2.0652 -8.743,-2.04649 0.44289,-3.64908 3.43257,-7.14608 5.6896,-9.86315 5.87016,-7.0651 12.90703,-13.12977 19.77507,-19.19463 2.18742,-1.93209 4.38446,-3.85537 6.51817,-5.84861 1.95876,-1.83127 4.14574,-3.76117 5.40398,-6.16833 1.2404,-2.37338 1.08911,-5.35533 -0.90046,-7.29432 -2.13587,-2.10572 -5.18537,-2.07088 -7.90233,-1.34984 -5.86026,1.55875 -11.35046,4.62512 -16.95136,6.90216 -2.80277,1.1376 -5.6489,2.21022 -8.57847,2.98013 -1.92752,0.50675 -5.38377,1.59013 -7.29634,0.49612 l -0.21902,-0.16375 c -1.81318,-2.08789 1.39454,-6.33004 2.59613,-7.94639 2.50007,-3.36538 5.55263,-6.30873 8.63442,-9.13567 3.08107,-2.82572 6.28366,-5.51531 9.38797,-8.31621 2.64612,-2.38676 5.98592,-5.13602 6.94528,-8.72822 1.00451,-3.75552 -1.3706,-7.0209 -4.89273,-8.14717 -3.81611,-1.15287 -8.12347,-0.73952 -12.05058,-0.57956 -4.29676,0.17544 -8.59511,0.42587 -12.89661,0.36028 -3.187,-0.0452 -7.86984,0.17707 -10.62648,-1.73796 l -0.1533,-0.12344 -3.4e-4,-0.005 c 0.007,-1.88444 2.63785,-3.75036 3.95364,-4.76471 2.40659,-1.856389 5.04919,-3.397227 7.71853,-4.838597 5.72622,-3.093575 11.71386,-5.669256 17.47571,-8.695782 4.74935,5.063679 11.62294,9.069646 18.79392,7.571718 7.12051,-1.485395 11.56754,-8.066455 13.26245,-14.750606 1.04927,-4.147581 0.92442,-8.464155 -0.27867,-12.477425 z"
   inkscape:connector-curvature="0" /><path
   id="path2995"
   style="fill:#b68e62"
   d="m 93.363,173.46129 c -0.831,4.947 -2.48,10.15 -5.689,15.134 -0.9,1.401 -2.765,1.806 -4.165,0.905 -1.4,-0.9 -1.804,-2.765 -0.904,-4.165 2.679,-4.17 4.078,-8.518 4.814,-12.876 0.276,-1.641 1.831,-2.746 3.471,-2.47 1.643,0.276 2.75,1.83 2.473,3.472 z M 77.505,117.83228 c -1.375,-4.731 -2.815,-9.595 -4.274,-14.45299 -0.479,-1.594 0.426,-3.274 2.02,-3.753 1.593,-0.478 3.274,0.425 3.752,2.02 1.463,4.87499 2.907,9.75399 4.289,14.50399 0.464,1.599 -0.455,3.27 -2.052,3.735 -1.598,0.465 -3.27,-0.455 -3.735,-2.053 z M 70.836,85.176289 c -1.589,0.494 -3.279,-0.395 -3.772,-1.984 -1.58,-5.087 -3.108,-9.94 -4.524,-14.385 -0.505,-1.587 0.371,-3.281997 1.956,-3.786997 1.586,-0.506 3.282,0.371 3.787,1.956 1.421,4.459997 2.953,9.328997 4.538,14.428997 0.492,1.587 -0.396,3.278 -1.985,3.771 z M 59.797,50.635291 c -1.571,0.548 -3.29,-0.281 -3.838,-1.853 -0.459,-1.317 -0.832,-2.343 -1.084,-2.99 -0.886,-2.326 -3.158,-5.002 -6.554,-7.643 -1.312,-1.026 -1.542,-2.919 -0.517,-4.23 1.025,-1.311 2.919,-1.542 4.23,-0.517 3.843,3.022 6.91,6.288 8.456,10.2 0.301,0.773 0.687,1.838 1.159,3.194 0.549,1.571 -0.28,3.291 -1.852,3.839 z m -25.12201,-24.127 c -0.71,1.506 -2.508,2.149 -4.012,1.438 -4.434,-2.095 -5.051,-2.383 -9.626,-4.32 h 0.001 c -1.533,-0.65 -2.249,-2.419 -1.599,-3.951001 0.65,-1.533 2.418,-2.248 3.95,-1.6 4.603,1.951 5.291,2.269 9.849,4.420001 1.505,0.714 2.149,2.509 1.437,4.013 z M 85.338,134.43128 c 1.608,-0.432 3.26,0.523 3.691,2.131 1.523,5.679 2.794,10.71501 3.698,14.78301 0.361,1.624 -0.663,3.234 -2.289,3.595 -1.625,0.361 -3.234,-0.663 -3.595,-2.289 -0.872,-3.929 -2.126,-8.90301 -3.635,-14.52801 -0.431,-1.607 0.523,-3.262 2.13,-3.692 z m 28.545,8.504 c -1.311,-1.447 -10.803,-0.301 -12.882,1.582 -2.486,-8.559 -5.575,-19.332 -8.724,-30.571 1.672,-0.015 8.905,-0.136 9.975,-1.206 1.19,-1.189 0,-14.68899 -1.386,-16.06099 -1.386,-1.387 -10.803,0.256 -12.777,2.23 -2.908,-10.503001 -5.65,-20.734001 -7.82,-29.292001 0,0 9.116,0 10.306,-1.191 1.205,-1.189 0,-14.689998 -1.372,-16.074998 -1.386,-1.371 -10.804,0.256 -12.777,2.245 h -0.015 c -2.471,-7.957 -6.328,-15.686 -13.53,-22.993 -9.568,-9.674 -25.013,-18.577001 -50.88201,-26.2170013 -2.6520001,6.3130003 2.682,19.6170013 8.768,47.2210013 3.768,14.313001 -19.5870002,46.331999 -19.5870002,66.294989 0,10.896 2.125,17.524 6.9610001,23.265 0,0.015 0.015,0.015 0.015,0.03 4.0080001,4.76101 9.8690001,8.90501 17.8850001,14.37401 12.98701,8.844 29.41101,23.158 42.74601,39.37 3.661,4.461 7.096,9.055 10.154,13.712 9.327,-7.549 15.58,-14.931 19.527,-22.194 5.123,-9.372 6.419,-18.563 5.575,-27.739 h 0.03 c 0,0 9.101,0.469 10.352,-0.661 1.252,-1.13 0.77,-14.66201 -0.542,-16.12401 z m -0.557,43.22701 c -1.928,-0.36 -8.784,6.283 -9.312,9.041 3.435,4.054 7.383,7.549 11.617,10.275 l 0.015,-0.014 c 0,0 7.548,-5.138 7.865,-6.796 0.302,-1.657 -8.271,-12.143 -10.185,-12.506 z"
   inkscape:connector-curvature="0" /><path
   style="fill:#b68e62"
   d="m 73.631203,-39.750742 h -0.007 v 0.007 h 0.007 v -0.007 z"
   id="path3-9" /></svg>